<?xml version="1.0" encoding="utf-8"?>
<!-- Generator: Adobe Illustrator 19.1.0, SVG Export Plug-In . SVG Version: 6.00 Build 0)  -->
<svg version="1.1" xmlns="http://www.w3.org/2000/svg" xmlns:xlink="http://www.w3.org/1999/xlink" x="0px" y="0px"
	 viewBox="0 0 360 360" style="enable-background:new 0 0 360 360;" xml:space="preserve">
<style type="text/css">
	.st0{fill:#4B5051;}
	.st1{fill:#93AFBA;}
	.st2{opacity:0.1;fill:url(#);}
	.st3{fill:#E8B167;stroke:#704626;stroke-width:3;stroke-miterlimit:10;}
	.st4{fill:#DA994A;}
	.st5{fill:#A48C76;stroke:#704626;stroke-width:3;stroke-miterlimit:10;}
	.st6{fill:none;stroke:#C2B09F;stroke-width:2;stroke-miterlimit:10;}
	.st7{fill:#704626;}
	.st8{fill:none;stroke:#352419;stroke-width:1.929;stroke-miterlimit:10;}
	.st9{opacity:0.25;fill:none;stroke:#704626;stroke-width:3;stroke-miterlimit:10;}
	.st10{fill:none;stroke:#F0D09F;stroke-width:2;stroke-miterlimit:10;}
	.st11{fill:none;stroke:#876B55;stroke-width:2;stroke-miterlimit:10;}
	.st12{fill:none;stroke:#E3AD63;stroke-width:2;stroke-miterlimit:10;}
	.st13{opacity:0.25;fill:none;stroke:#3F2D20;stroke-width:3.858;stroke-miterlimit:10;}
	.st14{fill:#59452E;}
	.st15{fill:#3F3021;}
	.st16{fill:#4C3E2F;stroke:#352419;stroke-width:3;stroke-miterlimit:10;}
	.st17{opacity:0.75;fill:#59452E;}
	.st18{opacity:0.75;}
	.st19{fill:#443A32;stroke:#352419;stroke-width:3;stroke-miterlimit:10;}
	.st20{fill:none;stroke:#3F2D20;stroke-width:2;stroke-miterlimit:10;}
	.st21{fill:#352419;}
	.st22{opacity:0.6;fill:none;stroke:#352419;stroke-width:3;stroke-miterlimit:10;}
	.st23{opacity:0.25;fill:none;stroke:#3F2D20;stroke-width:2;stroke-miterlimit:10;}
	.st24{fill:#FFCA0D;}
	.st25{fill:url(#SVGID_1_);}
	.st26{fill:url(#SVGID_2_);}
	.st27{fill:url(#SVGID_3_);}
	.st28{fill:url(#SVGID_4_);}
	.st29{fill:#E8B167;stroke:#704626;stroke-width:4.1847;stroke-miterlimit:10;}
	.st30{opacity:0.75;fill:#DA994A;}
	.st31{fill:#A48C76;stroke:#704626;stroke-width:4.1847;stroke-miterlimit:10;}
	.st32{fill:none;stroke:#C2B09F;stroke-width:2.0924;stroke-miterlimit:10;}
	.st33{fill:none;stroke:#704626;stroke-width:4.1847;stroke-miterlimit:10;}
	.st34{fill:none;stroke:#704626;stroke-width:2.0924;stroke-miterlimit:10;}
	.st35{opacity:0.25;fill:none;stroke:#704626;stroke-width:4.1847;stroke-miterlimit:10;}
	.st36{fill:none;stroke:#F0D09F;stroke-width:2.0924;stroke-miterlimit:10;}
	.st37{fill:none;stroke:#E3AD63;stroke-width:2.0924;stroke-miterlimit:10;}
</style>
<g id="Layer_2">
</g>
<g id="Layer_3">
	<path class="st16" d="M94.5,91.5c8.7-2.9,17.9-4.4,27.1-4.4h122.1c0,0,67,2.4,93.1,74.3c15.7,43.4,7.4,81.8-1.6,105.4
		c-6.6,17.3-17.5,32.5-32,44.1c-14.9,12-37.5,25-65,25H119.3c-3.3,0-6.6-0.3-9.8-1c-15.1-3-55.6-14.7-79.2-55.5
		c-29.4-50.9-8.9-116.9-8.9-116.9S37.6,110.7,94.5,91.5z"/>
	<path class="st17" d="M129.8,337.8c-33.3-7.3-68.9-28.8-82-62.3c-11.1-28.4-13.8-65.3-7.7-104c5.9-37.5,28.4-56.3,44-67.7
		c16.9-12.4,40.6-18.4,41.3-18.6l0.8,3.8c-0.6,0.1-60.3,14-71.2,83.1c-6,38-3.3,74.3,7.5,102c12.8,32.7,35.7,52.9,68.2,60
		L129.8,337.8z"/>
	<g class="st18">
		<path class="st14" d="M136,333.8c-0.8-0.4-14.9-6.8-23.7-24.5c-21.2-51.4-24.2-107.4-9-171.1c11.4-48,37-49.2,38.2-49.3l12.8,0.1
			c-0.3,0-25.9,4.9-36.7,50.1c-15,62.9-12.1,118.1,8.9,168.9c5.2,16.2,23.7,26.1,23.9,26.2L136,333.8z"/>
	</g>
	<path class="st17" d="M314.4,275.5c15.1-26.4,13.8-65.3,7.7-104c-5.9-37.5-28.4-56.3-44-67.7C261.2,91.4,236,89,236,89
		c0.6,0.1,60.3,14,71.2,83.1c6,38,3.3,74.3-7.5,102c-12.8,32.7-35.7,52.9-68.2,60C231.5,334,278.7,337.8,314.4,275.5z"/>
	<g class="st18">
		<path class="st14" d="M226.1,333.8c0.8-0.4,18.1-6.9,23.7-24.5c21.2-51.4,24.2-107.4,9-171.1c-11.4-48-37-49.2-38.2-49.3L207.8,89
			c0.3,0,25.9,4.9,36.7,50.1c15,62.9,12.1,118.1-8.9,168.9c-5.2,16.2-23.7,26.1-23.9,26.2L226.1,333.8z"/>
	</g>
	<path class="st19" d="M206.1,87.1c0,0-8.7-9.4-12.5-12.3c-3.9-2.9,3.6-30.9,24.8-41L205.5,9.9c0,0-37,15.9-39.7,63.4L152,87.1
		H206.1z"/>
	<line class="st20" x1="171.8" y1="54.7" x2="181.6" y2="54.7"/>
	<line class="st20" x1="176.3" y1="59.1" x2="187.5" y2="59.1"/>
	<line class="st20" x1="169.6" y1="68.6" x2="177.1" y2="68.6"/>
	<line class="st20" x1="181.6" y1="68.6" x2="188.2" y2="68.6"/>
	<line class="st20" x1="183.9" y1="78.3" x2="191.1" y2="78.3"/>
	<line class="st20" x1="167.6" y1="76.5" x2="178.8" y2="76.5"/>
	<line class="st20" x1="179.2" y1="50.9" x2="184.5" y2="50.9"/>
	<line class="st20" x1="183.9" y1="43.4" x2="189.2" y2="43.4"/>
	<line class="st20" x1="195.7" y1="35.9" x2="199.8" y2="35.9"/>
	<line class="st20" x1="193" y1="29.7" x2="198.3" y2="29.7"/>
	<line class="st20" x1="203.9" y1="24" x2="209.2" y2="24"/>
	<line class="st20" x1="161.3" y1="81.8" x2="173.5" y2="81.8"/>
	<line class="st20" x1="177.1" y1="72.4" x2="180.5" y2="72.4"/>
	<line class="st20" x1="187.5" y1="49.5" x2="190.9" y2="49.5"/>
	<line class="st20" x1="180.7" y1="47.4" x2="184.1" y2="47.4"/>
	<line class="st20" x1="190.5" y1="39.6" x2="193.9" y2="39.6"/>
	<line class="st20" x1="188.2" y1="35.9" x2="191.6" y2="35.9"/>
	<line class="st20" x1="205.8" y1="35.9" x2="209.2" y2="35.9"/>
	<line class="st20" x1="204.8" y1="28" x2="208.2" y2="28"/>
	<g>
		<path class="st21" d="M129.8,337.8c-33.3-7.3-57.9-28.8-70.9-62.3c-11.1-28.4-13.8-65.3-7.7-104c5.9-37.5,25.7-59,41.3-70.4
			c16.9-12.4,32.2-15.8,32.8-15.9l0.8,3.8c-0.6,0.1-60.3,14-71.2,83.1c-6,38-3.3,74.3,7.5,102c12.8,32.7,35.7,52.9,68.2,60
			L129.8,337.8z"/>
	</g>
	<g>
		<path class="st21" d="M148.6,337.6c-0.8-0.4-20.1-10.7-25.7-28.3c-21.2-51.4-24.2-107.4-9-171.1c11.4-48,38.7-52.9,39.8-53.1
			l0.6,3.8c-0.3,0-25.9,4.9-36.7,50.1c-15,62.9-12.1,118.1,8.9,168.9c5.2,16.2,23.7,26.1,23.9,26.2L148.6,337.6z"/>
	</g>
	<g>
		<path class="st21" d="M228.8,336.5l-0.6-2.5c33.7-8.3,57.1-28.8,69.4-61c10.3-27,12.5-61.9,6.4-101c-5.7-36.2-24.8-56.9-39.8-67.9
			C247.8,92.4,232.8,89,232.7,89l0.8-3.8c0.6,0.1,15.9,3.6,32.8,15.9c15.6,11.4,35.4,32.9,41.3,70.4c6.3,39.7,4,75.3-6.6,102.9
			c-11.7,30.7-33.2,51.2-63.8,61C234.6,336.3,231.6,335.9,228.8,336.5z"/>
	</g>
	<g>
		<path class="st21" d="M212.1,337.6l-1.8-3.4c0.2-0.1,18.7-10,23.8-26l0.1-0.1c21-50.7,23.9-106,8.9-168.9
			c-5.6-23.7-14.8-36.1-21.6-42.3c-7.2-6.7-13.2-7.8-13.2-7.8l0.7-3.8c1.1,0.2,26.5,5.1,37.9,53.1c15.2,63.7,12.2,119.7-9.1,171.2
			C232.1,327,213,337.2,212.1,337.6z"/>
	</g>
	<path class="st8" d="M208.7,15.9c0,0-34.7,15.5-35.2,58.4l3.4,13.3"/>
	<path class="st8" d="M214.5,26.7c0,0-26.5,14.9-29.3,46.4l5.9,14.5"/>
	<path class="st22" d="M78,167.1c0,0,6.3-62.9,58.6-80.1"/>
	<path class="st22" d="M43.1,136c0,0,29.6-36.2,50.5-44.3"/>
	<path class="st22" d="M33.4,154.6c0,0-12.1,28.7-9.4,64.1"/>
	<path class="st22" d="M31.3,262.6c0,0,17.3,50.7,57.4,66.2"/>
	<path class="st22" d="M74.6,202.5c0,0-5.1,46,14.2,86.5"/>
	<path class="st22" d="M136.9,202.5c0,0-2.9,108.1,22.7,133.4"/>
	<path class="st22" d="M196.7,202.5c0,0,0.2,118.7-8.4,133.4"/>
	<path class="st22" d="M172.6,87.6c0,0-9.4,49.2-8.4,132.6"/>
	<path class="st22" d="M189,87.6c0,0,8.9,43.2,7.2,68.7"/>
	<path class="st22" d="M161.5,87.6c0,0-16.2,16.9-18.1,42.9"/>
	<path class="st22" d="M218.9,136c0,0,14.5,105.9-2.2,164.7"/>
	<path class="st22" d="M279.4,158c0,0,19.3,79.8-10.5,135.3"/>
	<path class="st22" d="M227.3,87.1c0,0,23.6,11.8,33.3,27"/>
	<path class="st22" d="M314.8,132.9c0,0,10.9,17.1,15.9,31.3"/>
	<path class="st22" d="M335.5,202.5c0,0,4.3,50-15.7,79.4"/>
	<line class="st11" x1="178.2" y1="104.1" x2="178.2" y2="121.2"/>
	<line class="st11" x1="158.7" y1="102.4" x2="158.7" y2="113.6"/>
	<line class="st11" x1="137.5" y1="114.1" x2="137.5" y2="125.3"/>
	<line class="st11" x1="95" y1="129.6" x2="95" y2="140.9"/>
	<line class="st11" x1="81.6" y1="122.2" x2="81.6" y2="133.4"/>
	<line class="st11" x1="81.6" y1="177.2" x2="81.6" y2="188.4"/>
	<line class="st11" x1="74.9" y1="179.7" x2="74.9" y2="190.9"/>
	<line class="st11" x1="60.4" y1="182.1" x2="60.4" y2="197.9"/>
	<line class="st11" x1="83.7" y1="199.2" x2="83.7" y2="215"/>
	<line class="st11" x1="130.1" y1="194" x2="130.1" y2="216.1"/>
	<line class="st11" x1="153.1" y1="180.4" x2="153.1" y2="208.9"/>
	<line class="st11" x1="118.4" y1="207.7" x2="118.4" y2="224.7"/>
	<line class="st11" x1="180" y1="262.6" x2="180" y2="274.7"/>
	<line class="st11" x1="187.7" y1="212.4" x2="187.7" y2="224.4"/>
	<line class="st11" x1="180" y1="200.3" x2="180" y2="212.4"/>
	<line class="st11" x1="186" y1="193" x2="186" y2="205.1"/>
	<line class="st11" x1="208.7" y1="187" x2="208.7" y2="202.5"/>
	<line class="st11" x1="233.9" y1="190.8" x2="233.9" y2="206.3"/>
	<line class="st11" x1="297.7" y1="178.6" x2="297.7" y2="194.2"/>
	<line class="st11" x1="276.5" y1="178.6" x2="276.5" y2="194.2"/>
	<line class="st11" x1="291.9" y1="186.4" x2="291.9" y2="201.9"/>
	<line class="st11" x1="303.6" y1="189.8" x2="303.6" y2="200.8"/>
	<line class="st11" x1="208.7" y1="161" x2="208.7" y2="169.8"/>
	<line class="st11" x1="278.6" y1="125.2" x2="278.6" y2="134"/>
	<line class="st11" x1="305.6" y1="120.8" x2="305.6" y2="127.3"/>
	<line class="st11" x1="268.9" y1="122.9" x2="268.9" y2="131.7"/>
	<line class="st11" x1="272.7" y1="134.7" x2="272.7" y2="143.5"/>
	<line class="st11" x1="326.5" y1="176.6" x2="326.5" y2="185.3"/>
	<line class="st11" x1="332.3" y1="181" x2="332.3" y2="189.7"/>
	<line class="st11" x1="241.9" y1="198.6" x2="241.9" y2="214.1"/>
	<line class="st23" x1="56.2" y1="210.4" x2="56.2" y2="220.2"/>
	<line class="st23" x1="70.1" y1="256.4" x2="70.1" y2="266.2"/>
	<line class="st23" x1="87.4" y1="256.4" x2="87.4" y2="266.2"/>
	<line class="st23" x1="75.9" y1="270.2" x2="75.9" y2="280"/>
	<line class="st23" x1="93.4" y1="281.9" x2="93.4" y2="291.7"/>
	<line class="st13" x1="127.9" y1="252.8" x2="127.9" y2="267.1"/>
	<line class="st23" x1="133.6" y1="281.4" x2="133.6" y2="295.7"/>
	<line class="st13" x1="151.1" y1="271.5" x2="151.1" y2="285.8"/>
	<line class="st23" x1="164.7" y1="245.7" x2="164.7" y2="260"/>
	<line class="st23" x1="183.9" y1="234.7" x2="183.9" y2="252"/>
	<line class="st23" x1="158.2" y1="287.1" x2="158.2" y2="304.4"/>
	<line class="st23" x1="176.3" y1="290" x2="176.3" y2="307.3"/>
	<line class="st23" x1="183.9" y1="283.1" x2="183.9" y2="300.4"/>
	<line class="st23" x1="203" y1="285.8" x2="203" y2="303"/>
	<line class="st23" x1="211" y1="295.7" x2="211" y2="313"/>
	<line class="st23" x1="205.9" y1="245.8" x2="205.9" y2="263"/>
	<line class="st23" x1="270.5" y1="246.7" x2="270.5" y2="264"/>
	<line class="st23" x1="294" y1="234.7" x2="294" y2="252"/>
	<line class="st23" x1="81.4" y1="218.7" x2="81.4" y2="228.6"/>
	<line class="st23" x1="87.3" y1="170.6" x2="87.3" y2="180.4"/>
	<line class="st13" x1="128.1" y1="136" x2="128.1" y2="149.9"/>
	<line class="st13" x1="137.5" y1="139.9" x2="137.5" y2="153.9"/>
	<line class="st23" x1="154.8" y1="131.9" x2="154.8" y2="145.8"/>
	<line class="st23" x1="170.7" y1="139.9" x2="170.7" y2="153.9"/>
	<line class="st23" x1="201.4" y1="132.1" x2="201.4" y2="146.1"/>
	<line class="st13" x1="226.3" y1="137.4" x2="226.3" y2="151.4"/>
	<line class="st13" x1="236.1" y1="132.9" x2="236.1" y2="146.9"/>
	<line class="st23" x1="267" y1="143.5" x2="267" y2="157.5"/>
	<path class="st24" d="M88.8,233c0,0,1.3,27.1,28.9,44.7l9.1-2.8l4.5,9.7c0,0,22.2,8.1,35.2,7.6l13.2-10.4l13.2,10.4
		c0,0,25.6-2.5,35.2-7.6l4.5-9.7l9.1,2.8c0,0,25.3-14.4,28.9-44.7l-16.1,25.1l-28.3-4.2l-21.2,21.3l-25.3-16.8l-25.3,16.8L133.2,254
		l-28.3,4.2L88.8,233z"/>
	<linearGradient id="SVGID_1_" gradientUnits="userSpaceOnUse" x1="179.681" y1="300.75" x2="179.681" y2="259.9992">
		<stop  offset="0" style="stop-color:#CC9900"/>
		<stop  offset="1" style="stop-color:#000000;stop-opacity:0"/>
	</linearGradient>
	<path class="st25" d="M241.6,273.1l-9.1-2.8l-4.5,9.7c-9.6,5.1-35.2,7.6-35.2,7.6l-13.2-10.4l-13.2,10.4
		c-12.9,0.5-35.2-7.6-35.2-7.6l-4.5-9.7l-9.1,2.8c-19.4-12.4-25.8-29.4-27.9-38.5l-1-1.6c0,0,1.3,27.1,28.9,44.7l9.1-2.8l4.5,9.7
		c0,0,22.2,8.1,35.2,7.6l13.2-10.4l13.2,10.4c0,0,25.6-2.5,35.2-7.6l4.5-9.7l9.1,2.8c0,0,25.3-14.4,28.9-44.7l-1.1,1.8
		C263.3,260.7,241.6,273.1,241.6,273.1z"/>
	<polygon class="st24" points="179.7,182 149.6,229.3 209.7,229.3 	"/>
	<linearGradient id="SVGID_2_" gradientUnits="userSpaceOnUse" x1="180.2694" y1="235.0746" x2="179.0194" y2="222.8246">
		<stop  offset="0" style="stop-color:#CC9900"/>
		<stop  offset="1" style="stop-color:#000000;stop-opacity:0"/>
	</linearGradient>
	<polygon class="st26" points="152.2,225.3 149.6,229.3 209.7,229.3 207.2,225.3 	"/>
	<polygon class="st24" points="122.3,123.2 99.8,174.5 159.2,165.1 	"/>
	<polygon class="st24" points="237.1,123.2 200.2,165.1 259.6,174.5 	"/>
	<linearGradient id="SVGID_3_" gradientUnits="userSpaceOnUse" x1="130.6818" y1="173.7995" x2="127.3485" y2="162.4661">
		<stop  offset="0" style="stop-color:#CC9900"/>
		<stop  offset="1" style="stop-color:#000000;stop-opacity:0"/>
	</linearGradient>
	<polygon class="st27" points="156.7,162.3 101.3,171.1 99.8,174.5 159.2,165.1 	"/>
	<linearGradient id="SVGID_4_" gradientUnits="userSpaceOnUse" x1="230.5372" y1="173.7242" x2="227.8705" y2="158.0575">
		<stop  offset="0" style="stop-color:#CC9900"/>
		<stop  offset="1" style="stop-color:#000000;stop-opacity:0"/>
	</linearGradient>
	<polygon class="st28" points="202.6,162.3 200.2,165.1 259.6,174.5 258.1,171.1 	"/>
</g>
</svg>
