<?xml version="1.0" encoding="utf-8"?>
<!-- Generator: Adobe Illustrator 15.1.0, SVG Export Plug-In . SVG Version: 6.00 Build 0)  -->
<!DOCTYPE svg PUBLIC "-//W3C//DTD SVG 1.1//EN" "http://www.w3.org/Graphics/SVG/1.1/DTD/svg11.dtd">
<svg version="1.1" id="Layer_1" xmlns="http://www.w3.org/2000/svg" xmlns:xlink="http://www.w3.org/1999/xlink" x="0px" y="0px"
	 width="792px" height="612px" viewBox="0 0 792 612" enable-background="new 0 0 792 612" xml:space="preserve">
<g id="Layer_2">
</g>
<g id="Layer_3">
	<path fill="#4C3E2F" stroke="#352419" stroke-width="3" stroke-miterlimit="10" d="M250.65,155.55
		c14.79-4.93,30.43-7.48,46.07-7.48h207.57c0,0,113.9,4.08,158.27,126.31c26.69,73.78,12.58,139.061-2.72,179.18
		c-11.22,29.41-29.75,55.25-54.399,74.971c-25.33,20.399-63.751,42.5-110.5,42.5H292.81c-5.61,0-11.22-0.511-16.66-1.7
		c-25.67-5.1-94.52-24.99-134.64-94.35c-49.98-86.53-15.13-198.73-15.13-198.73S153.92,188.19,250.65,155.55z"/>
	<path opacity="0.75" fill="#59452E" enable-background="new    " d="M310.66,574.26c-56.61-12.41-117.13-48.96-139.4-105.91
		c-18.87-48.279-23.46-111.01-13.09-176.8c10.03-63.75,48.28-95.71,74.8-115.09c28.73-21.08,69.02-31.28,70.21-31.62l1.36,6.46
		c-1.02,0.17-102.51,23.8-121.04,141.27c-10.2,64.6-5.61,126.31,12.75,173.4c21.76,55.591,60.69,89.931,115.94,102L310.66,574.26z"
		/>
	<g opacity="0.75">
		<path fill="#59452E" d="M321.2,567.46c-1.36-0.68-25.33-11.56-40.29-41.65c-36.04-87.38-41.14-182.579-15.3-290.87
			c19.38-81.6,62.9-83.64,64.94-83.81l21.76,0.17c-0.51,0-44.03,8.33-62.39,85.17C264.42,343.4,269.35,437.24,305.05,523.6
			c8.84,27.54,40.29,44.37,40.63,44.54L321.2,567.46z"/>
	</g>
	<path opacity="0.75" fill="#59452E" enable-background="new    " d="M624.48,468.35c25.67-44.88,23.46-111.01,13.09-176.8
		c-10.03-63.75-48.28-95.71-74.801-115.09C534.04,155.38,491.2,151.3,491.2,151.3c1.02,0.17,102.51,23.8,121.04,141.27
		c10.2,64.6,5.609,126.31-12.75,173.4c-21.76,55.591-60.69,89.931-115.94,102C483.55,567.8,563.79,574.26,624.48,468.35z"/>
	<g opacity="0.75">
		<path fill="#59452E" d="M474.37,567.46c1.36-0.68,30.77-11.729,40.29-41.65c36.04-87.38,41.14-182.579,15.3-290.87
			c-19.38-81.6-62.9-83.64-64.94-83.81l-21.76,0.17c0.51,0,44.03,8.33,62.391,85.17C531.15,343.4,526.22,437.24,490.52,523.6
			c-8.84,27.54-40.289,44.37-40.63,44.54L474.37,567.46z"/>
	</g>
	<path fill="#443A32" stroke="#352419" stroke-width="3" stroke-miterlimit="10" d="M440.37,148.07c0,0-14.79-15.98-21.25-20.91
		c-6.63-4.93,6.12-52.53,42.16-69.7L439.35,16.83c0,0-62.899,27.03-67.49,107.78l-23.46,23.46H440.37z"/>
	<line fill="none" stroke="#3F2D20" stroke-width="2" stroke-miterlimit="10" x1="382.06" y1="92.99" x2="398.72" y2="92.99"/>
	<line fill="none" stroke="#3F2D20" stroke-width="2" stroke-miterlimit="10" x1="389.71" y1="100.47" x2="408.75" y2="100.47"/>
	<line fill="none" stroke="#3F2D20" stroke-width="2" stroke-miterlimit="10" x1="378.32" y1="116.62" x2="391.07" y2="116.62"/>
	<line fill="none" stroke="#3F2D20" stroke-width="2" stroke-miterlimit="10" x1="398.72" y1="116.62" x2="409.94" y2="116.62"/>
	<line fill="none" stroke="#3F2D20" stroke-width="2" stroke-miterlimit="10" x1="402.63" y1="133.11" x2="414.87" y2="133.11"/>
	<line fill="none" stroke="#3F2D20" stroke-width="2" stroke-miterlimit="10" x1="374.92" y1="130.05" x2="393.96" y2="130.05"/>
	<line fill="none" stroke="#3F2D20" stroke-width="2" stroke-miterlimit="10" x1="394.64" y1="86.53" x2="403.65" y2="86.53"/>
	<line fill="none" stroke="#3F2D20" stroke-width="2" stroke-miterlimit="10" x1="402.63" y1="73.78" x2="411.64" y2="73.78"/>
	<line fill="none" stroke="#3F2D20" stroke-width="2" stroke-miterlimit="10" x1="422.69" y1="61.03" x2="429.66" y2="61.03"/>
	<line fill="none" stroke="#3F2D20" stroke-width="2" stroke-miterlimit="10" x1="418.1" y1="50.49" x2="427.11" y2="50.49"/>
	<line fill="none" stroke="#3F2D20" stroke-width="2" stroke-miterlimit="10" x1="436.63" y1="40.8" x2="445.64" y2="40.8"/>
	<line fill="none" stroke="#3F2D20" stroke-width="2" stroke-miterlimit="10" x1="364.21" y1="139.06" x2="384.95" y2="139.06"/>
	<line fill="none" stroke="#3F2D20" stroke-width="2" stroke-miterlimit="10" x1="391.07" y1="123.08" x2="396.85" y2="123.08"/>
	<line fill="none" stroke="#3F2D20" stroke-width="2" stroke-miterlimit="10" x1="408.75" y1="84.15" x2="414.53" y2="84.15"/>
	<line fill="none" stroke="#3F2D20" stroke-width="2" stroke-miterlimit="10" x1="397.19" y1="80.58" x2="402.97" y2="80.58"/>
	<line fill="none" stroke="#3F2D20" stroke-width="2" stroke-miterlimit="10" x1="413.85" y1="67.32" x2="419.63" y2="67.32"/>
	<line fill="none" stroke="#3F2D20" stroke-width="2" stroke-miterlimit="10" x1="409.94" y1="61.03" x2="415.72" y2="61.03"/>
	<line fill="none" stroke="#3F2D20" stroke-width="2" stroke-miterlimit="10" x1="439.86" y1="61.03" x2="445.64" y2="61.03"/>
	<line fill="none" stroke="#3F2D20" stroke-width="2" stroke-miterlimit="10" x1="438.16" y1="47.6" x2="443.94" y2="47.6"/>
	<g>
		<path fill="#352419" d="M310.66,574.26c-56.61-12.41-98.43-48.96-120.53-105.91c-18.87-48.279-23.46-111.01-13.09-176.8
			c10.03-63.75,43.69-100.3,70.21-119.68c28.73-21.08,54.74-26.86,55.76-27.03l1.36,6.46c-1.02,0.17-102.51,23.8-121.04,141.27
			c-10.2,64.6-5.61,126.31,12.75,173.4c21.76,55.591,60.69,89.931,115.94,102L310.66,574.26z"/>
	</g>
	<g>
		<path fill="#352419" d="M342.62,573.92c-1.36-0.68-34.17-18.189-43.69-48.109c-36.04-87.381-41.14-182.58-15.3-290.871
			c19.38-81.6,65.79-89.93,67.66-90.27l1.02,6.46c-0.51,0-44.03,8.33-62.39,85.17c-25.5,106.931-20.57,200.771,15.13,287.13
			c8.84,27.54,40.29,44.37,40.63,44.54L342.62,573.92z"/>
	</g>
	<g>
		<path fill="#352419" d="M478.96,572.05l-1.02-4.25c57.29-14.109,97.069-48.96,117.979-103.7
			c17.51-45.899,21.25-105.229,10.88-171.7c-9.689-61.54-42.16-96.73-67.66-115.43c-27.88-19.89-53.38-25.67-53.55-25.67l1.36-6.46
			c1.02,0.17,27.03,6.12,55.76,27.03c26.521,19.38,60.18,55.93,70.21,119.68c10.71,67.49,6.8,128.01-11.22,174.931
			C581.81,518.67,545.26,553.52,493.24,570.18C488.82,571.71,483.72,571.03,478.96,572.05z"/>
	</g>
	<g>
		<path fill="#352419" d="M450.57,573.92l-3.061-5.78c0.34-0.17,31.79-17,40.46-44.199l0.17-0.171
			c35.7-86.189,40.63-180.199,15.13-287.129c-9.52-40.29-25.159-61.37-36.72-71.91c-12.24-11.39-22.439-13.26-22.439-13.26
			l1.189-6.46c1.87,0.34,45.05,8.67,64.431,90.27C535.57,343.57,530.47,438.77,494.26,526.32
			C484.57,555.9,452.1,573.24,450.57,573.92z"/>
	</g>
	<path fill="none" stroke="#352419" stroke-width="1.929" stroke-miterlimit="10" d="M444.79,27.03c0,0-58.99,26.35-59.84,99.28
		l5.78,22.61"/>
	<path fill="none" stroke="#352419" stroke-width="1.929" stroke-miterlimit="10" d="M454.65,45.39c0,0-45.051,25.33-49.811,78.88
		l10.03,24.65"/>
	<path opacity="0.6" fill="none" stroke="#352419" stroke-width="3" stroke-miterlimit="10" enable-background="new    " d="
		M222.6,284.07c0,0,10.71-106.93,99.62-136.17"/>
	<path opacity="0.6" fill="none" stroke="#352419" stroke-width="3" stroke-miterlimit="10" enable-background="new    " d="
		M163.27,231.2c0,0,50.32-61.54,85.85-75.31"/>
	<path opacity="0.6" fill="none" stroke="#352419" stroke-width="3" stroke-miterlimit="10" enable-background="new    " d="
		M146.78,262.82c0,0-20.57,48.791-15.98,108.97"/>
	<path opacity="0.6" fill="none" stroke="#352419" stroke-width="3" stroke-miterlimit="10" enable-background="new    " d="
		M143.21,446.42c0,0,29.41,86.19,97.58,112.54"/>
	<path opacity="0.6" fill="none" stroke="#352419" stroke-width="3" stroke-miterlimit="10" enable-background="new    " d="
		M216.82,344.25c0,0-8.67,78.2,24.14,147.05"/>
	<path opacity="0.6" fill="none" stroke="#352419" stroke-width="3" stroke-miterlimit="10" enable-background="new    " d="
		M322.73,344.25c0,0-4.93,183.77,38.59,226.78"/>
	<path opacity="0.6" fill="none" stroke="#352419" stroke-width="3" stroke-miterlimit="10" enable-background="new    " d="
		M424.39,344.25c0,0,0.341,201.79-14.279,226.78"/>
	<path opacity="0.6" fill="none" stroke="#352419" stroke-width="3" stroke-miterlimit="10" enable-background="new    " d="
		M383.42,148.92c0,0-15.98,83.64-14.28,225.42"/>
	<path opacity="0.6" fill="none" stroke="#352419" stroke-width="3" stroke-miterlimit="10" enable-background="new    " d="
		M411.3,148.92c0,0,15.13,73.44,12.24,116.79"/>
	<path opacity="0.6" fill="none" stroke="#352419" stroke-width="3" stroke-miterlimit="10" enable-background="new    " d="
		M364.55,148.92c0,0-27.54,28.73-30.77,72.93"/>
	<path opacity="0.6" fill="none" stroke="#352419" stroke-width="3" stroke-miterlimit="10" enable-background="new    " d="
		M462.13,231.2c0,0,24.65,180.03-3.74,279.99"/>
	<path opacity="0.6" fill="none" stroke="#352419" stroke-width="3" stroke-miterlimit="10" enable-background="new    " d="
		M564.98,268.6c0,0,32.81,135.66-17.851,230.01"/>
	<path opacity="0.6" fill="none" stroke="#352419" stroke-width="3" stroke-miterlimit="10" enable-background="new    " d="
		M476.41,148.07c0,0,40.12,20.06,56.609,45.9"/>
	<path opacity="0.6" fill="none" stroke="#352419" stroke-width="3" stroke-miterlimit="10" enable-background="new    " d="
		M625.16,225.93c0,0,18.53,29.07,27.03,53.21"/>
	<path opacity="0.6" fill="none" stroke="#352419" stroke-width="3" stroke-miterlimit="10" enable-background="new    " d="
		M660.35,344.25c0,0,7.311,85-26.689,134.98"/>
	<line fill="none" stroke="#876B55" stroke-width="2" stroke-miterlimit="10" x1="392.94" y1="176.97" x2="392.94" y2="206.04"/>
	<line fill="none" stroke="#876B55" stroke-width="2" stroke-miterlimit="10" x1="359.79" y1="174.08" x2="359.79" y2="193.12"/>
	<line fill="none" stroke="#876B55" stroke-width="2" stroke-miterlimit="10" x1="323.75" y1="193.97" x2="323.75" y2="213.01"/>
	<line fill="none" stroke="#876B55" stroke-width="2" stroke-miterlimit="10" x1="251.5" y1="220.32" x2="251.5" y2="239.53"/>
	<line fill="none" stroke="#876B55" stroke-width="2" stroke-miterlimit="10" x1="228.72" y1="207.74" x2="228.72" y2="226.78"/>
	<line fill="none" stroke="#876B55" stroke-width="2" stroke-miterlimit="10" x1="228.72" y1="301.24" x2="228.72" y2="320.28"/>
	<line fill="none" stroke="#876B55" stroke-width="2" stroke-miterlimit="10" x1="217.33" y1="305.49" x2="217.33" y2="324.53"/>
	<line fill="none" stroke="#876B55" stroke-width="2" stroke-miterlimit="10" x1="192.68" y1="309.57" x2="192.68" y2="336.43"/>
	<line fill="none" stroke="#876B55" stroke-width="2" stroke-miterlimit="10" x1="232.29" y1="338.64" x2="232.29" y2="365.5"/>
	<line fill="none" stroke="#876B55" stroke-width="2" stroke-miterlimit="10" x1="311.17" y1="329.8" x2="311.17" y2="367.37"/>
	<line fill="none" stroke="#876B55" stroke-width="2" stroke-miterlimit="10" x1="350.27" y1="306.68" x2="350.27" y2="355.13"/>
	<line fill="none" stroke="#876B55" stroke-width="2" stroke-miterlimit="10" x1="291.28" y1="353.09" x2="291.28" y2="381.99"/>
	<line fill="none" stroke="#876B55" stroke-width="2" stroke-miterlimit="10" x1="396" y1="446.42" x2="396" y2="466.99"/>
	<line fill="none" stroke="#876B55" stroke-width="2" stroke-miterlimit="10" x1="409.09" y1="361.08" x2="409.09" y2="381.48"/>
	<line fill="none" stroke="#876B55" stroke-width="2" stroke-miterlimit="10" x1="396" y1="340.51" x2="396" y2="361.08"/>
	<line fill="none" stroke="#876B55" stroke-width="2" stroke-miterlimit="10" x1="406.2" y1="328.1" x2="406.2" y2="348.67"/>
	<line fill="none" stroke="#876B55" stroke-width="2" stroke-miterlimit="10" x1="444.79" y1="317.9" x2="444.79" y2="344.25"/>
	<line fill="none" stroke="#876B55" stroke-width="2" stroke-miterlimit="10" x1="487.63" y1="324.36" x2="487.63" y2="350.71"/>
	<line fill="none" stroke="#876B55" stroke-width="2" stroke-miterlimit="10" x1="596.09" y1="303.62" x2="596.09" y2="330.14"/>
	<line fill="none" stroke="#876B55" stroke-width="2" stroke-miterlimit="10" x1="560.05" y1="303.62" x2="560.05" y2="330.14"/>
	<line fill="none" stroke="#876B55" stroke-width="2" stroke-miterlimit="10" x1="586.23" y1="316.88" x2="586.23" y2="343.23"/>
	<line fill="none" stroke="#876B55" stroke-width="2" stroke-miterlimit="10" x1="606.12" y1="322.66" x2="606.12" y2="341.36"/>
	<line fill="none" stroke="#876B55" stroke-width="2" stroke-miterlimit="10" x1="444.79" y1="273.7" x2="444.79" y2="288.66"/>
	<line fill="none" stroke="#876B55" stroke-width="2" stroke-miterlimit="10" x1="563.62" y1="212.84" x2="563.62" y2="227.8"/>
	<line fill="none" stroke="#876B55" stroke-width="2" stroke-miterlimit="10" x1="609.52" y1="205.36" x2="609.52" y2="216.41"/>
	<line fill="none" stroke="#876B55" stroke-width="2" stroke-miterlimit="10" x1="547.13" y1="208.93" x2="547.13" y2="223.89"/>
	<line fill="none" stroke="#876B55" stroke-width="2" stroke-miterlimit="10" x1="553.59" y1="228.99" x2="553.59" y2="243.95"/>
	<line fill="none" stroke="#876B55" stroke-width="2" stroke-miterlimit="10" x1="645.05" y1="300.22" x2="645.05" y2="315.01"/>
	<line fill="none" stroke="#876B55" stroke-width="2" stroke-miterlimit="10" x1="654.91" y1="307.7" x2="654.91" y2="322.49"/>
	<line fill="none" stroke="#876B55" stroke-width="2" stroke-miterlimit="10" x1="501.23" y1="337.62" x2="501.23" y2="363.97"/>
	
		<line opacity="0.25" fill="none" stroke="#3F2D20" stroke-width="2" stroke-miterlimit="10" enable-background="new    " x1="185.54" y1="357.68" x2="185.54" y2="374.34"/>
	
		<line opacity="0.25" fill="none" stroke="#3F2D20" stroke-width="2" stroke-miterlimit="10" enable-background="new    " x1="209.17" y1="435.88" x2="209.17" y2="452.54"/>
	
		<line opacity="0.25" fill="none" stroke="#3F2D20" stroke-width="2" stroke-miterlimit="10" enable-background="new    " x1="238.58" y1="435.88" x2="238.58" y2="452.54"/>
	
		<line opacity="0.25" fill="none" stroke="#3F2D20" stroke-width="2" stroke-miterlimit="10" enable-background="new    " x1="219.03" y1="459.34" x2="219.03" y2="476"/>
	
		<line opacity="0.25" fill="none" stroke="#3F2D20" stroke-width="2" stroke-miterlimit="10" enable-background="new    " x1="248.78" y1="479.23" x2="248.78" y2="495.89"/>
	
		<line opacity="0.25" fill="none" stroke="#3F2D20" stroke-width="3.858" stroke-miterlimit="10" enable-background="new    " x1="307.43" y1="429.76" x2="307.43" y2="454.07"/>
	
		<line opacity="0.25" fill="none" stroke="#3F2D20" stroke-width="2" stroke-miterlimit="10" enable-background="new    " x1="317.12" y1="478.38" x2="317.12" y2="502.69"/>
	
		<line opacity="0.25" fill="none" stroke="#3F2D20" stroke-width="3.858" stroke-miterlimit="10" enable-background="new    " x1="346.87" y1="461.55" x2="346.87" y2="485.86"/>
	
		<line opacity="0.25" fill="none" stroke="#3F2D20" stroke-width="2" stroke-miterlimit="10" enable-background="new    " x1="369.99" y1="417.69" x2="369.99" y2="442"/>
	
		<line opacity="0.25" fill="none" stroke="#3F2D20" stroke-width="2" stroke-miterlimit="10" enable-background="new    " x1="402.63" y1="398.99" x2="402.63" y2="428.4"/>
	
		<line opacity="0.25" fill="none" stroke="#3F2D20" stroke-width="2" stroke-miterlimit="10" enable-background="new    " x1="358.94" y1="488.07" x2="358.94" y2="517.48"/>
	
		<line opacity="0.25" fill="none" stroke="#3F2D20" stroke-width="2" stroke-miterlimit="10" enable-background="new    " x1="389.71" y1="493" x2="389.71" y2="522.41"/>
	
		<line opacity="0.25" fill="none" stroke="#3F2D20" stroke-width="2" stroke-miterlimit="10" enable-background="new    " x1="402.63" y1="481.27" x2="402.63" y2="510.68"/>
	
		<line opacity="0.25" fill="none" stroke="#3F2D20" stroke-width="2" stroke-miterlimit="10" enable-background="new    " x1="435.1" y1="485.86" x2="435.1" y2="515.1"/>
	
		<line opacity="0.25" fill="none" stroke="#3F2D20" stroke-width="2" stroke-miterlimit="10" enable-background="new    " x1="448.7" y1="502.69" x2="448.7" y2="532.1"/>
	
		<line opacity="0.25" fill="none" stroke="#3F2D20" stroke-width="2" stroke-miterlimit="10" enable-background="new    " x1="440.03" y1="417.86" x2="440.03" y2="447.1"/>
	
		<line opacity="0.25" fill="none" stroke="#3F2D20" stroke-width="2" stroke-miterlimit="10" enable-background="new    " x1="549.85" y1="419.39" x2="549.85" y2="448.8"/>
	
		<line opacity="0.25" fill="none" stroke="#3F2D20" stroke-width="2" stroke-miterlimit="10" enable-background="new    " x1="589.8" y1="398.99" x2="589.8" y2="428.4"/>
	
		<line opacity="0.25" fill="none" stroke="#3F2D20" stroke-width="2" stroke-miterlimit="10" enable-background="new    " x1="228.38" y1="371.79" x2="228.38" y2="388.62"/>
	
		<line opacity="0.25" fill="none" stroke="#3F2D20" stroke-width="2" stroke-miterlimit="10" enable-background="new    " x1="238.41" y1="290.02" x2="238.41" y2="306.68"/>
	
		<line opacity="0.25" fill="none" stroke="#3F2D20" stroke-width="3.858" stroke-miterlimit="10" enable-background="new    " x1="307.77" y1="231.2" x2="307.77" y2="254.83"/>
	
		<line opacity="0.25" fill="none" stroke="#3F2D20" stroke-width="3.858" stroke-miterlimit="10" enable-background="new    " x1="323.75" y1="237.83" x2="323.75" y2="261.63"/>
	
		<line opacity="0.25" fill="none" stroke="#3F2D20" stroke-width="2" stroke-miterlimit="10" enable-background="new    " x1="353.16" y1="224.23" x2="353.16" y2="247.86"/>
	
		<line opacity="0.25" fill="none" stroke="#3F2D20" stroke-width="2" stroke-miterlimit="10" enable-background="new    " x1="380.19" y1="237.83" x2="380.19" y2="261.63"/>
	
		<line opacity="0.25" fill="none" stroke="#3F2D20" stroke-width="2" stroke-miterlimit="10" enable-background="new    " x1="432.38" y1="224.57" x2="432.38" y2="248.37"/>
	
		<line opacity="0.25" fill="none" stroke="#3F2D20" stroke-width="3.858" stroke-miterlimit="10" enable-background="new    " x1="474.71" y1="233.58" x2="474.71" y2="257.38"/>
	
		<line opacity="0.25" fill="none" stroke="#3F2D20" stroke-width="3.858" stroke-miterlimit="10" enable-background="new    " x1="491.37" y1="225.93" x2="491.37" y2="249.73"/>
	
		<line opacity="0.25" fill="none" stroke="#3F2D20" stroke-width="2" stroke-miterlimit="10" enable-background="new    " x1="543.9" y1="243.95" x2="543.9" y2="267.75"/>
	<path fill="#4C3E2F" stroke="#352419" stroke-width="3" stroke-miterlimit="10" d="M240.96,396.1c0,0,2.21,46.07,49.13,75.99
		l15.47-4.76l7.65,16.49c0,0,37.74,13.77,59.84,12.92l22.44-17.68l22.439,17.68c0,0,43.521-4.25,59.84-12.92l7.65-16.49l15.47,4.76
		c0,0,43.011-24.479,49.13-75.99l-27.369,42.67l-48.11-7.14l-36.04,36.21l-43.01-28.56l-43.01,28.56l-36.04-36.04l-48.11,7.141
		L240.96,396.1z"/>
	
		<linearGradient id="SVGID_1_" gradientUnits="userSpaceOnUse" x1="179.8062" y1="312.0449" x2="179.8062" y2="352.795" gradientTransform="matrix(1.7 0 0 -1.7 89.65 1041.751)">
		<stop  offset="0" style="stop-color:#CC9900"/>
		<stop  offset="1" style="stop-color:#000000;stop-opacity:0"/>
	</linearGradient>
	<path opacity="0.86" fill="url(#SVGID_1_)" d="M500.72,464.27l-15.47-4.76L477.6,476c-16.319,8.67-59.84,12.92-59.84,12.92
		l-22.44-17.68l-22.44,17.68c-21.93,0.851-59.84-12.92-59.84-12.92l-7.65-16.49l-15.47,4.76
		c-32.98-21.079-43.86-49.979-47.43-65.449l-1.7-2.721c0,0,2.21,46.07,49.13,75.99l15.47-4.76l7.65,16.49
		c0,0,37.74,13.77,59.84,12.92l22.44-17.68l22.44,17.68c0,0,43.521-4.25,59.84-12.92l7.65-16.49l15.47,4.76
		c0,0,43.011-24.479,49.13-75.99l-1.869,3.061C537.61,443.19,500.72,464.27,500.72,464.27z"/>
	<polygon fill="#4C3E2F" stroke="#352419" stroke-width="3" stroke-miterlimit="10" points="395.49,309.4 344.32,389.81 
		446.49,389.81 	"/>
	
		<linearGradient id="SVGID_2_" gradientUnits="userSpaceOnUse" x1="180.4468" y1="377.7158" x2="179.1967" y2="389.9664" gradientTransform="matrix(1.7 0 0 -1.7 89.65 1041.751)">
		<stop  offset="0" style="stop-color:#CC9900"/>
		<stop  offset="1" style="stop-color:#000000;stop-opacity:0"/>
	</linearGradient>
	<polygon fill="url(#SVGID_2_)" points="348.74,383.01 344.32,389.81 446.49,389.81 442.24,383.01 	"/>
	<polygon fill="#4C3E2F" stroke="#352419" stroke-width="3" stroke-miterlimit="10" points="297.91,209.44 259.66,296.65 
		360.64,280.67 	"/>
	<polygon fill="#4C3E2F" stroke="#352419" stroke-width="3" stroke-miterlimit="10" points="493.07,209.44 430.34,280.67 
		531.32,296.65 	"/>
	
		<linearGradient id="SVGID_3_" gradientUnits="userSpaceOnUse" x1="130.8828" y1="438.9932" x2="127.5495" y2="450.3266" gradientTransform="matrix(1.7 0 0 -1.7 89.65 1041.751)">
		<stop  offset="0" style="stop-color:#CC9900"/>
		<stop  offset="1" style="stop-color:#000000;stop-opacity:0"/>
	</linearGradient>
	<polygon opacity="0.49" fill="url(#SVGID_3_)" points="356.39,275.91 262.21,290.87 259.66,296.65 360.64,280.67 	"/>
	
		<linearGradient id="SVGID_4_" gradientUnits="userSpaceOnUse" x1="230.7734" y1="439.0742" x2="228.1067" y2="454.7413" gradientTransform="matrix(1.7 0 0 -1.7 89.65 1041.751)">
		<stop  offset="0" style="stop-color:#CC9900"/>
		<stop  offset="1" style="stop-color:#000000;stop-opacity:0"/>
	</linearGradient>
	<polygon opacity="0.49" fill="url(#SVGID_4_)" points="434.42,275.91 430.34,280.67 531.32,296.65 528.77,290.87 	"/>
</g>
</svg>
