<?xml version="1.0" encoding="utf-8"?>
<!-- Generator: Adobe Illustrator 19.1.0, SVG Export Plug-In . SVG Version: 6.00 Build 0)  -->
<svg version="1.1" id="Layer_1" xmlns="http://www.w3.org/2000/svg" xmlns:xlink="http://www.w3.org/1999/xlink" x="0px" y="0px"
	 viewBox="-19 21 360 360" style="enable-background:new -19 21 360 360;" xml:space="preserve">
<style type="text/css">
	.st0{fill:none;}
	.st1{fill:#9E9996;}
	.st2{fill:#FF9933;stroke:#704626;stroke-width:3;stroke-miterlimit:10;}
	.st3{fill:#E5852E;}
	.st4{fill:#7C593C;stroke:#543B2A;stroke-width:3;stroke-miterlimit:10;}
	.st5{fill:none;stroke:#A88C79;stroke-width:2;stroke-miterlimit:10;}
	.st6{opacity:0.6;}
	.st7{fill:#543B2A;}
	.st8{fill:none;stroke:#5E412C;stroke-width:1.929;stroke-miterlimit:10;}
	.st9{opacity:0.25;fill:none;stroke:#704626;stroke-width:3;stroke-miterlimit:10;enable-background:new    ;}
	.st10{fill:none;stroke:#876B55;stroke-width:2;stroke-miterlimit:10;}
	.st11{fill:none;stroke:#FFB26C;stroke-width:2;stroke-miterlimit:10;}
	.st12{fill:none;stroke:#C4863B;stroke-width:2;stroke-miterlimit:10;}
	.st13{fill:none;stroke:#E3AD63;stroke-width:2;stroke-miterlimit:10;}
	.st14{opacity:0.25;fill:none;stroke:#3F2D20;stroke-width:3.858;stroke-miterlimit:10;enable-background:new    ;}
	.st15{fill:#59452E;}
	.st16{fill:#3F3021;}
	.st17{fill:url(#SVGID_1_);}
	.st18{fill:#704626;}
</style>
<pattern  x="-19" y="381" width="5" height="4" patternUnits="userSpaceOnUse" id="Festive_Fox_Pattern_Tile_05" viewBox="0 -4 5 4" style="overflow:visible;">
	<g>
		<polygon class="st0" points="0,-4 5,-4 5,0 0,0 		"/>
		<polygon class="st1" points="0,-3 0,-4 1,-4 1,-3 		"/>
	</g>
</pattern>
<g id="Layer_2">
</g>
<path class="st2" d="M74.2,111c8.7-2.9,17.9-4.4,27.1-4.4h122.1c0,0,67,2.4,93.1,74.3c15.7,43.4,7.4,81.8-1.6,105.4
	c-6.6,17.3-17.5,32.5-32,44.1c-14.9,12-37.5,25-65,25H99c-3.3,0-6.6-0.3-9.8-1c-15.1-3-55.6-14.7-79.2-55.5
	C-19.4,248,1.1,182,1.1,182S17.3,130.2,74.2,111z"/>
<path class="st3" d="M109.5,357.3c-33.3-7.3-68.9-28.8-82-62.3c-11.1-28.4-13.8-65.3-7.7-104c5.9-37.5,28.4-56.3,44-67.7
	c12.6-9.3,29-15,36.8-17.3c2.6-0.8,5.3,2.5,5.3,2.5c-0.6,0.1-60.3,14-71.2,83.1c-6,38-3.3,74.3,7.5,102c12.8,32.7,35.7,52.9,68.2,60
	L109.5,357.3z"/>
<g>
	<path class="st3" d="M115.7,353.3c-0.8-0.4-14.9-6.8-23.7-24.5c-21.2-51.4-24.2-107.4-9-171.1c11.4-48,37-49.2,38.2-49.3l12.8,0.1
		c-0.3,0-25.9,4.9-36.7,50.1c-15,62.9-12.1,118.1,8.9,168.9c5.2,16.2,23.7,26.1,23.9,26.2L115.7,353.3z"/>
</g>
<path class="st3" d="M294.1,295c15.1-26.4,13.8-65.3,7.7-104c-5.9-37.5-28.4-56.3-44-67.7c-16.9-12.4-42.1-14.8-42.1-14.8
	c0.6,0.1,60.3,14,71.2,83.1c6,38,3.3,74.3-7.5,102c-12.8,32.7-35.7,52.9-68.2,60C211.2,353.5,258.4,357.3,294.1,295z"/>
<g>
	<path class="st3" d="M205.8,353.3c0.8-0.4,18.1-6.9,23.7-24.5c21.2-51.4,24.2-107.4,9-171.1c-11.4-48-37-49.2-38.2-49.3l-12.8,0.1
		c0.3,0,25.9,4.9,36.7,50.1c15,62.9,12.1,118.1-8.9,168.9c-5.2,16.2-23.7,26.1-23.9,26.2L205.8,353.3z"/>
</g>
<path class="st4" d="M185.8,106.6c0,0-8.7-9.4-12.5-12.3c-3.9-2.9,3.6-30.9,24.8-41l-12.9-23.9c0,0-37,15.9-39.7,63.4l-13.8,13.8
	H185.8z"/>
<line class="st5" x1="151.5" y1="74.2" x2="161.3" y2="74.2"/>
<line class="st5" x1="156" y1="78.6" x2="167.2" y2="78.6"/>
<line class="st5" x1="149.3" y1="88.1" x2="156.8" y2="88.1"/>
<line class="st5" x1="161.3" y1="88.1" x2="167.9" y2="88.1"/>
<line class="st5" x1="163.6" y1="97.8" x2="170.8" y2="97.8"/>
<line class="st5" x1="147.3" y1="96" x2="158.5" y2="96"/>
<line class="st5" x1="158.9" y1="70.4" x2="164.2" y2="70.4"/>
<line class="st5" x1="163.6" y1="62.9" x2="168.9" y2="62.9"/>
<line class="st5" x1="175.4" y1="55.4" x2="179.5" y2="55.4"/>
<line class="st5" x1="172.7" y1="49.2" x2="178" y2="49.2"/>
<line class="st5" x1="183.6" y1="43.5" x2="188.9" y2="43.5"/>
<line class="st5" x1="141" y1="101.3" x2="153.2" y2="101.3"/>
<line class="st5" x1="156.8" y1="91.9" x2="160.2" y2="91.9"/>
<line class="st5" x1="167.2" y1="69" x2="170.6" y2="69"/>
<line class="st5" x1="160.4" y1="66.9" x2="163.8" y2="66.9"/>
<line class="st5" x1="170.2" y1="59.1" x2="173.6" y2="59.1"/>
<line class="st5" x1="167.9" y1="55.4" x2="171.3" y2="55.4"/>
<line class="st5" x1="185.5" y1="55.4" x2="188.9" y2="55.4"/>
<line class="st5" x1="184.5" y1="47.5" x2="187.9" y2="47.5"/>
<g class="st6">
	<path class="st7" d="M109.5,357.3c-1.6-0.4-3.2-0.7-4.7-1.1C73.9,348,51,326.9,38.6,295c-11.1-28.4-13.8-65.3-7.7-104
		c5.9-37.5,25.7-59,41.3-70.4c11.7-8.6,22.6-12.8,28.4-14.7c2.6-0.8,5.2,2.6,5.2,2.6c-0.6,0.1-60.3,14-71.2,83.1
		c-6,38-3.3,74.3,7.5,102c12.8,32.7,35.7,52.9,68.2,60L109.5,357.3z"/>
</g>
<g class="st6">
	<path class="st7" d="M128.3,357.1c-0.1-0.1-0.7-0.4-1.6-0.9c-4.9-2.9-19.3-12.5-24.1-27.4c-21.2-51.4-24.2-107.4-9-171.1
		c11.4-48,38.7-52.9,39.8-53.1l0.6,3.8c-0.3,0-25.9,4.9-36.7,50.1c-15,62.9-12.1,118.1,8.9,168.9c5.2,16.2,23.7,26.1,23.9,26.2
		L128.3,357.1z"/>
</g>
<g class="st6">
	<path class="st7" d="M208.6,356.6l-0.7-3c33.7-8.3,57.1-28.8,69.4-61c10.3-27,12.5-61.9,6.4-101c-5.7-36.2-24.8-56.9-39.8-67.9
		c-16.4-11.8-31.4-15.2-31.5-15.2l0.8-3.8c0.6,0.1,15.9,3.6,32.8,15.9c15.6,11.4,35.4,32.9,41.3,70.4c6.3,39.7,4,75.3-6.6,102.9
		c-12.4,32.4-35.6,53.4-68.9,62.5C210.8,356.8,209.6,356.3,208.6,356.6z"/>
</g>
<g class="st6">
	<path class="st7" d="M191.7,356.2l-1.7-2.5c0.2-0.1,18.7-10,23.8-26l0.1-0.1c21-50.7,23.9-106,8.9-168.9
		c-5.6-23.7-14.8-36.1-21.6-42.3c-7.2-6.7-13.2-7.8-13.2-7.8l0.7-3.8c1.1,0.2,26.5,5.1,37.9,53.1c15.2,63.7,12.2,119.7-9.1,171.2
		c-4.8,14.9-19.3,24.5-24.1,27.3C192.5,356.8,191.8,356.1,191.7,356.2z"/>
</g>
<path class="st8" d="M188.4,35.4c0,0-34.7,15.5-35.2,58.4l3.4,13.3"/>
<path class="st8" d="M194.2,46.2c0,0-26.5,14.9-29.3,46.4l5.9,14.5"/>
<path class="st9" d="M57.7,186.6c0,0,6.3-62.9,58.6-80.1"/>
<path class="st9" d="M22.8,155.5c0,0,29.6-36.2,50.5-44.3"/>
<path class="st9" d="M13.1,174.1c0,0-12.1,28.7-9.4,64.1"/>
<path class="st9" d="M11,282.1c0,0,17.3,50.7,57.4,66.2"/>
<path class="st9" d="M54.3,222c0,0-5.1,46,14.2,86.5"/>
<path class="st9" d="M116.6,222c0,0-2.9,108.1,22.7,133.4"/>
<path class="st9" d="M176.4,222c0,0,0.2,118.7-8.4,133.4"/>
<path class="st9" d="M152.3,107.1c0,0-9.4,49.2-8.4,132.6"/>
<path class="st9" d="M168.7,107.1c0,0,8.9,43.2,7.2,68.7"/>
<path class="st9" d="M141.2,107.1c0,0-16.2,16.9-18.1,42.9"/>
<path class="st9" d="M198.6,155.5c0,0,14.5,105.9-2.2,164.7"/>
<path class="st9" d="M259.1,177.5c0,0,19.3,79.8-10.5,135.3"/>
<path class="st9" d="M207,106.6c0,0,23.6,11.8,33.3,27"/>
<path class="st9" d="M294.5,152.4c0,0,10.9,17.1,15.9,31.3"/>
<path class="st9" d="M315.2,222c0,0,4.3,50-15.7,79.4"/>
<line class="st10" x1="159.7" y1="282.1" x2="159.7" y2="294.2"/>
<line class="st10" x1="167.4" y1="231.9" x2="167.4" y2="243.9"/>
<line class="st10" x1="159.7" y1="219.8" x2="159.7" y2="231.9"/>
<line class="st10" x1="165.7" y1="212.5" x2="165.7" y2="224.6"/>
<g>
	<line class="st11" x1="157.9" y1="123.6" x2="157.9" y2="140.7"/>
	<line class="st11" x1="138.4" y1="121.9" x2="138.4" y2="133.1"/>
	<line class="st11" x1="117.2" y1="133.6" x2="117.2" y2="144.8"/>
	<line class="st11" x1="74.7" y1="149.1" x2="74.7" y2="160.4"/>
	<line class="st11" x1="61.3" y1="141.7" x2="61.3" y2="152.9"/>
	<line class="st11" x1="61.3" y1="196.7" x2="61.3" y2="207.9"/>
	<line class="st11" x1="54.6" y1="199.2" x2="54.6" y2="210.4"/>
	<line class="st11" x1="40.1" y1="201.6" x2="40.1" y2="217.4"/>
	<line class="st11" x1="63.4" y1="218.7" x2="63.4" y2="234.5"/>
	<line class="st11" x1="109.8" y1="213.5" x2="109.8" y2="235.6"/>
	<line class="st11" x1="132.8" y1="199.9" x2="132.8" y2="228.4"/>
	<line class="st11" x1="98.1" y1="227.2" x2="98.1" y2="244.2"/>
	<line class="st11" x1="188.4" y1="206.5" x2="188.4" y2="222"/>
	<line class="st11" x1="213.6" y1="210.3" x2="213.6" y2="225.8"/>
	<line class="st11" x1="277.4" y1="198.1" x2="277.4" y2="213.7"/>
	<line class="st11" x1="256.2" y1="198.1" x2="256.2" y2="213.7"/>
	<line class="st11" x1="271.6" y1="205.9" x2="271.6" y2="221.4"/>
	<line class="st11" x1="283.3" y1="209.3" x2="283.3" y2="220.3"/>
	<line class="st11" x1="188.4" y1="180.5" x2="188.4" y2="189.3"/>
	<line class="st11" x1="258.3" y1="144.7" x2="258.3" y2="153.5"/>
	<line class="st11" x1="285.3" y1="140.3" x2="285.3" y2="146.8"/>
	<line class="st11" x1="248.6" y1="142.4" x2="248.6" y2="151.2"/>
	<line class="st11" x1="252.4" y1="154.2" x2="252.4" y2="163"/>
	<line class="st11" x1="306.2" y1="196.1" x2="306.2" y2="204.8"/>
	<line class="st11" x1="312" y1="200.5" x2="312" y2="209.2"/>
	<line class="st11" x1="221.6" y1="218.1" x2="221.6" y2="233.6"/>
</g>
<line class="st12" x1="35.9" y1="229.9" x2="35.9" y2="239.7"/>
<line class="st12" x1="49.8" y1="275.9" x2="49.8" y2="285.7"/>
<line class="st12" x1="67.1" y1="275.9" x2="67.1" y2="285.7"/>
<line class="st12" x1="55.6" y1="289.7" x2="55.6" y2="299.5"/>
<line class="st12" x1="73.1" y1="301.4" x2="73.1" y2="311.2"/>
<line class="st13" x1="107.6" y1="272.3" x2="107.6" y2="286.6"/>
<line class="st12" x1="113.3" y1="300.9" x2="113.3" y2="315.2"/>
<line class="st14" x1="130.8" y1="291" x2="130.8" y2="305.3"/>
<line class="st12" x1="144.4" y1="265.2" x2="144.4" y2="279.5"/>
<line class="st12" x1="163.6" y1="254.2" x2="163.6" y2="271.5"/>
<line class="st12" x1="137.9" y1="306.6" x2="137.9" y2="323.9"/>
<line class="st12" x1="156" y1="309.5" x2="156" y2="326.8"/>
<line class="st12" x1="163.6" y1="302.6" x2="163.6" y2="319.9"/>
<line class="st12" x1="182.7" y1="305.3" x2="182.7" y2="322.5"/>
<line class="st12" x1="190.7" y1="315.2" x2="190.7" y2="332.5"/>
<line class="st12" x1="185.6" y1="265.3" x2="185.6" y2="282.5"/>
<line class="st12" x1="250.2" y1="266.2" x2="250.2" y2="283.5"/>
<line class="st12" x1="273.7" y1="254.2" x2="273.7" y2="271.5"/>
<line class="st12" x1="61.1" y1="238.2" x2="61.1" y2="248.1"/>
<line class="st12" x1="67" y1="190.1" x2="67" y2="199.9"/>
<line class="st14" x1="107.8" y1="155.5" x2="107.8" y2="169.4"/>
<line class="st14" x1="117.2" y1="159.4" x2="117.2" y2="173.4"/>
<line class="st12" x1="134.5" y1="151.4" x2="134.5" y2="165.3"/>
<line class="st12" x1="150.4" y1="159.4" x2="150.4" y2="173.4"/>
<line class="st12" x1="181.1" y1="151.6" x2="181.1" y2="165.6"/>
<line class="st14" x1="206" y1="156.9" x2="206" y2="170.9"/>
<line class="st14" x1="215.8" y1="152.4" x2="215.8" y2="166.4"/>
<line class="st12" x1="246.7" y1="163" x2="246.7" y2="177"/>
<path class="st15" d="M68.5,252.5c0,0,1.3,27.1,28.9,44.7l9.1-2.8l4.5,9.7c0,0,22.2,8.1,35.2,7.6l13.2-10.4l13.2,10.4
	c0,0,25.6-2.5,35.2-7.6l4.5-9.7l9.1,2.8c0,0,25.3-14.4,28.9-44.7l-16.1,25.1l-28.3-4.2l-21.2,21.3l-25.3-16.8l-25.3,16.8l-21.2-21.2
	l-28.3,4.2L68.5,252.5z"/>
<path class="st16" d="M221.3,292.6l-9.1-2.8l-4.5,9.7c-9.6,5.1-35.2,7.6-35.2,7.6l-13.2-10.4l-13.2,10.4
	c-12.9,0.5-35.2-7.6-35.2-7.6l-4.5-9.7l-9.1,2.8c-19.4-12.4-25.8-29.4-27.9-38.5l-1-1.6c0,0,1.3,27.1,28.9,44.7l9.1-2.8l4.5,9.7
	c0,0,22.2,8.1,35.2,7.6l13.2-10.4l13.2,10.4c0,0,25.6-2.5,35.2-7.6l4.5-9.7l9.1,2.8c0,0,25.3-14.4,28.9-44.7l-1.1,1.8
	C243,280.2,221.3,292.6,221.3,292.6z"/>
<polygon class="st15" points="159.4,201.5 129.3,248.8 189.4,248.8 "/>
<polygon class="st16" points="131.9,244.8 129.3,248.8 189.4,248.8 186.9,244.8 "/>
<polygon class="st15" points="102,142.7 79.5,194 138.9,184.6 "/>
<polygon class="st16" points="102,142.7 79.5,194 138.9,184.6 "/>
<polygon class="st15" points="102.3,147 82.6,191.7 134.5,183.5 "/>
<polygon class="st16" points="179.5,184.6 238.9,194 216.5,142.7 "/>
<polygon class="st15" points="183.9,183.5 235.8,191.7 216.2,147 "/>
<pattern  id="SVGID_1_" xlink:href="#Festive_Fox_Pattern_Tile_05" patternTransform="matrix(1 0 0 1 -10 -3)">
</pattern>
<rect x="-233.4" y="-108.6" class="st17" width="88" height="88"/>
<g>
	<path class="st18" d="M217.9,356.9H99c-3.6,0-7-0.3-10.1-1c-16.2-3.2-56.4-15.1-80.2-56.2c-29.4-50.9-9.2-117.4-9-118.1
		c0.2-0.5,17.1-52.8,74.1-72l0,0c8.9-3,18.2-4.5,27.6-4.5h122.1c0.8,0,17.3,0.7,37.4,10.3c18.5,8.9,43.4,27.3,57.1,65
		c15.7,43.4,7.8,81.8-1.6,106.4c-6.7,17.7-18,33.1-32.5,44.7C269.5,343.1,246.4,356.9,217.9,356.9z M74.7,112.4
		c-55.5,18.7-72,69.5-72.1,70c-0.2,0.7-20,66,8.8,115.7c23.1,40,62.4,51.6,78.2,54.8c3,0.6,6.1,1,9.5,1h118.9
		c27.6,0,50.1-13.4,64.1-24.7c14.1-11.3,25-26.3,31.5-43.5c9.2-24.2,17-61.9,1.6-104.4c-13.3-36.7-37.6-54.6-55.6-63.3
		c-19.5-9.3-36-10-36.2-10l-122,0C92.3,108.1,83.3,109.6,74.7,112.4L74.7,112.4z"/>
</g>
</svg>
